<svg enable-background="new 0 0 15.07 15" height="15" viewBox="0 0 15.07 15" width="15.07" xmlns="http://www.w3.org/2000/svg"><path d="m10.516 0h-5.827c-2.757 0-4.689 1.844-4.689 4.533v5.934c0 2.611 1.764 4.533 4.556 4.533h5.96c2.68 0 4.555-1.854 4.555-4.533v-5.934c-.001-2.622-1.764-4.533-4.555-4.533zm3.215 10.467c0 .951-.305 1.756-.88 2.327-.574.571-1.382.873-2.336.873h-5.96c-.981 0-1.8-.306-2.365-.884-.557-.569-.851-1.369-.851-2.316v-5.934c0-1.944 1.314-3.2 3.35-3.2h5.826c.982 0 1.801.305 2.365.881.557.568.851 1.37.851 2.319zm-6.179-6.834c-2.136 0-3.868 1.723-3.868 3.85 0 2.126 1.732 3.851 3.868 3.851 2.137 0 3.868-1.725 3.868-3.851 0-2.127-1.732-3.85-3.868-3.85zm0 6.368c-1.394 0-2.528-1.13-2.528-2.518s1.135-2.517 2.528-2.517c1.396 0 2.529 1.129 2.529 2.517s-1.134 2.518-2.529 2.518zm3.986-7.401c-.509 0-.921.411-.921.917s.412.917.921.917c.508 0 .921-.411.921-.917 0-.507-.413-.917-.921-.917z" fill="#7f7f7f"/></svg>