<?xml version="1.0" encoding="utf-8"?>
<!-- Generator: Adobe Illustrator 16.0.0, SVG Export Plug-In . SVG Version: 6.00 Build 0)  -->
<!DOCTYPE svg PUBLIC "-//W3C//DTD SVG 1.1//EN" "http://www.w3.org/Graphics/SVG/1.1/DTD/svg11.dtd">
<svg version="1.1" id="Layer_1" xmlns="http://www.w3.org/2000/svg" xmlns:xlink="http://www.w3.org/1999/xlink" x="0px" y="0px"
	 width="400px" height="91.157px" viewBox="0 0 400 91.157" enable-background="new 0 0 400 91.157" xml:space="preserve">
<g>
	<g>
		<g>
			
				<radialGradient id="SVGID_1_" cx="44.6299" cy="79.374" r="93.2837" gradientTransform="matrix(1.0179 -0.0043 -0.0043 1.0026 -1.2729 0.2219)" gradientUnits="userSpaceOnUse">
				<stop  offset="0" style="stop-color:#E36B31"/>
				<stop  offset="0.1287" style="stop-color:#F4540E"/>
				<stop  offset="0.3521" style="stop-color:#C7150D"/>
				<stop  offset="0.763" style="stop-color:#87090A"/>
				<stop  offset="1" style="stop-color:#380703"/>
			</radialGradient>
			<path fill="url(#SVGID_1_)" d="M49.624,58.649c-1.338-5.084-13.777-8.104-21.658-16.471c-7.879-8.366-2.635-17.186,3.322-22.759
				c5.957-5.574,13.293-9.223,17.727-11.106c1.442-0.612,2.923-1.266,4.27-1.869c-1.511,0.284-3.028,0.622-4.544,1.021
				C19.267,15.228,1.379,34.915,5.916,52.684c2.503,9.8,11.7,16.796,24.175,19.892C40.185,68.592,50.887,63.445,49.624,58.649z"/>
		</g>
		<g>
			
				<radialGradient id="SVGID_2_" cx="44.6299" cy="79.374" r="93.2813" gradientTransform="matrix(1.0179 -0.0043 -0.0043 1.0026 -1.2729 0.2219)" gradientUnits="userSpaceOnUse">
				<stop  offset="0" style="stop-color:#E36B31"/>
				<stop  offset="0.1287" style="stop-color:#F4540E"/>
				<stop  offset="0.3521" style="stop-color:#C7150D"/>
				<stop  offset="0.763" style="stop-color:#87090A"/>
				<stop  offset="1" style="stop-color:#380703"/>
			</radialGradient>
			<path fill="url(#SVGID_2_)" d="M77.339,52.781c-6.76-4.658-20.384-13.146-21.28-20.001c-0.897-6.858,7.755-14.772,14.848-18.787
				c4.599-2.601,8.059-4.402,12.04-6.323C76.567,5.892,69.389,5,61.89,5.406c-7.322,2.401-15.066,6.346-23.151,11.908
				c-9.004,6.193-10.884,15.597-7.368,20.108c3.517,4.508,17.052,12.245,22.877,15.575c5.829,3.328,4.261,11.751,0.917,15.635
				c-2.197,2.553-5.432,4.514-7.933,5.702c5.761-0.145,11.812-0.966,17.937-2.531c7.424-1.898,14.23-4.704,20.147-8.13
				C85.384,59.251,81.608,55.723,77.339,52.781z"/>
		</g>
	</g>
	<g>
		
			<radialGradient id="SVGID_3_" cx="44.6304" cy="79.3745" r="93.2853" gradientTransform="matrix(1.0179 -0.0043 -0.0043 1.0026 -1.2729 0.2219)" gradientUnits="userSpaceOnUse">
			<stop  offset="0" style="stop-color:#E36B31"/>
			<stop  offset="0.1287" style="stop-color:#F4540E"/>
			<stop  offset="0.3521" style="stop-color:#C7150D"/>
			<stop  offset="0.763" style="stop-color:#87090A"/>
			<stop  offset="1" style="stop-color:#380703"/>
		</radialGradient>
		<path fill="url(#SVGID_3_)" d="M84.619,66.864c-5.842,3.37-12.4,6.064-19.412,7.911c-14.282,3.761-28.661,3.565-40.485-0.55
			C13.202,70.215,5.529,62.96,3.115,53.795c-2.413-9.162,0.693-19.256,8.743-28.417C20.122,15.97,32.541,8.719,46.821,4.957
			c14.283-3.761,28.659-3.565,40.487,0.55c0.042,0.015,0.083,0.031,0.123,0.046c0.925-0.43,1.895-0.879,2.927-1.354
			C78.291-0.648,62.462-1.522,46.241,2.751C15.785,10.771-4.529,33.89,0.869,54.389c5.397,20.496,34.462,30.612,64.92,22.593
			c5.832-1.538,11.292-3.627,16.271-6.149C83.264,69.442,84.096,68.121,84.619,66.864z"/>
	</g>
</g>
<g>
	<path fill="#FFFFFF" d="M97.91,39.861c0,0,8.663,0,10.255,0c1.587,0,3.495,0.232,2.939,2.402
		c-0.556,2.173-11.461,48.316-11.461,48.316s-8.488,0-9.681,0c-1.189,0-2.462-0.08-1.589-3.259
		c0.875-3.178,10.57-41.644,10.888-43.274c0.318-1.625-0.08-3.023-1.43-3.333C97.831,40.323,97.91,39.861,97.91,39.861z"/>
	<path fill="#FFFFFF" d="M127.184,55.843c0.538-2.209,0.61-2.512,0.696-2.852c0.448-1.744-0.491-3.137-2.717-3.137
		c-1.276,0-9.167,0-9.167,0s-0.063,0.374-0.063,0.686c1.083,0.25,1.404,1.371,1.149,2.679c-0.256,1.306-7.781,31.211-8.484,33.763
		c-0.701,2.553,1.019,3.597,1.975,3.597s9.133,0,9.133,0s3.718-19.297,6.198-29.483c0,0,1.326-3.089,3.711-3.089
		c2.384,0,4.132,0,4.768,0c0.638,0,1.67,0.232,2.305,0.853c0.636,0.62,0.953,1.629,0.636,3.101l-6.274,25.022
		c-0.699,2.553,1.02,3.597,1.978,3.597c0.954,0,8.341,0,8.341,0s4.51-19.297,6.989-29.483c0,0,1.817-5.881,0-8.285
		c-1.813-2.405-3.721-2.956-6.74-2.956c-0.754,0-0.387,0-1.672,0C136.409,49.855,131.351,49.336,127.184,55.843z"/>
	<path fill="#FFFFFF" d="M378.018,55.843c0.54-2.209,0.612-2.512,0.699-2.852c0.447-1.744-0.491-3.137-2.717-3.137
		c-1.276,0-9.168,0-9.168,0s-0.064,0.374-0.064,0.686c1.084,0.25,1.405,1.371,1.148,2.679c-0.253,1.306-7.78,31.211-8.484,33.763
		c-0.701,2.553,1.02,3.597,1.975,3.597c0.958,0,9.135,0,9.135,0s3.719-19.297,6.197-29.483c0,0,1.325-3.089,3.71-3.089
		c2.388,0,4.134,0,4.771,0s1.667,0.232,2.307,0.853c0.634,0.62,0.952,1.629,0.634,3.101l-6.272,25.022
		c-0.702,2.553,1.017,3.597,1.975,3.597c0.955,0,8.342,0,8.342,0s4.512-19.297,6.991-29.483c0,0,1.812-5.881,0-8.285
		c-1.816-2.405-3.724-2.956-6.742-2.956c-0.753,0-0.387,0-1.673,0C387.248,49.855,382.186,49.336,378.018,55.843z"/>
	<path fill="#FFFFFF" d="M188.593,54.672c-4.365,12.6-12.35,35.907-12.35,35.907s-6.564,0-7.755,0c-1.194,0-2.452-0.08-1.138-3.259
		c1.314-3.178,15.854-41.567,16.398-43.196c0.544-1.628,0.07-3.101-1.24-3.411c0.055-0.39,0.198-0.853,0.198-0.853
		s10.021,0,11.611,0c0,0,2.147,0.155,2.463,2.015c0.318,1.862,1.987,29.082,1.987,29.082s11.444-25.902,11.923-26.986
		c0.477-1.086,0.872-3.181-1.035-3.258c0-0.39,0-0.853,0-0.853s11.128,0,12.16,0c1.034,0,2.623,1.084,2.623,2.792
		c0,1.705,0,47.927,0,47.927s-7.391,0-8.424,0c-1.032,0-2.066-0.312-2.066-3.103c0-2.794,0-31.408,0-31.408
		s-13.511,31.096-14.862,34.511c-1.43,0-7.946,0-7.946,0L188.593,54.672z"/>
	<path fill="#FFFFFF" d="M267.288,52.344c-3.258-3.332-10.889-3.102-12.716-3.102c-4.847,0.233-10.174,0.465-14.544,3.49
		c-4.371,3.024-6.835,10.78-8.027,15.124c-1.191,4.342-3.735,14.191-0.717,18.689c3.021,4.499,8.586,4.884,17.805,4.499
		c9.217-0.386,13.113-5.35,15.179-9.383c2.067-4.035,3.575-9.384,4.608-15.2C269.911,60.643,270.545,55.68,267.288,52.344z
		 M259.26,64.288c-1.51,6.746-4.213,18.922-10.41,19.311c-6.202,0.388-8.266-1.629-8.266-4.576c0-2.948,2.463-15.434,5.324-18.767
		c2.859-3.334,5.6-3.904,7.469-3.723C256.001,56.533,260.77,57.543,259.26,64.288z"/>
	<path fill="#FFFFFF" d="M355.641,52.344c-3.256-3.332-10.887-3.102-12.713-3.102c-4.848,0.233-10.174,0.465-14.545,3.49
		s-6.835,10.78-8.025,15.124c-1.193,4.342-3.737,14.191-0.715,18.689c3.019,4.499,8.582,4.884,17.799,4.499
		c9.221-0.386,13.113-5.35,15.18-9.383c2.067-4.035,3.575-9.384,4.609-15.2C358.266,60.643,358.901,55.68,355.641,52.344z
		 M347.618,64.288c-1.514,6.746-4.215,18.922-10.412,19.311c-6.201,0.388-8.266-1.629-8.266-4.576
		c0-2.948,2.463-15.434,5.325-18.767c2.86-3.334,5.599-3.904,7.468-3.723C344.358,56.533,349.125,57.543,347.618,64.288z"/>
	<path fill="#FFFFFF" d="M304.86,50.019c1.513,0,9.536,0,10.412,0c0.875,0,2.146,0.853,1.432,3.646
		c-0.717,2.791-7.791,31.174-8.188,32.648c-0.396,1.473-0.396,3.489,1.114,3.489c0,0.467,0,0.778,0,0.778s-9.141,0-9.937,0
		c-0.793,0-2.623-0.544-1.826-3.725c0.794-3.178,8.105-32.105,8.424-33.579c0.316-1.475-0.081-2.405-1.432-2.405
		C304.86,50.562,304.86,50.019,304.86,50.019z"/>
	<path fill="#FFFFFF" d="M309.231,39.866c2.066,0,7.072,0,8.105,0c1.037,0,2.464,0.478,2.068,2.224
		c-0.398,1.75-1.192,4.531-1.113,5.168c-1.353,0-6.754,0-7.947,0s-2.545-0.159-2.068-2.385
		C308.754,42.647,309.63,40.5,309.231,39.866z"/>
	<path fill="#FFFFFF" d="M277.689,51.104c2.08,0,6.582-1.086,9.427-11.485c2.048,0,7.252,0,7.252,0l-2.121,10.399h9.854
		c0,0-0.875,3.723-1.349,5.119c-0.478,1.395-1.514,2.324-3.978,2.324s-6.277-0.774-7.629,4.811
		c-1.351,5.583-3.496,14.114-3.814,15.898c-0.319,1.782-0.476,3.23,2.943,3.23c3.416,0,7.374,0,7.374,0s-0.62,3.128-1.019,4.603
		c-0.396,1.473-0.963,4.576-5.449,4.576c-4.487,0-10.628,0-11.807,0c-1.182,0-5.553,0.078-3.884-7.058
		c1.667-7.135,6.276-26.06,6.276-26.06h-3.654L277.689,51.104z"/>
</g>
</svg>
